<?xml version="1.0" encoding="UTF-8" standalone="no"?>
<!-- Created with Inkscape (http://www.inkscape.org/) -->

<svg
   version="1.1"
   id="svg824"
   width="1920"
   height="1080"
   viewBox="0 0 1920 1080"
   xmlns="http://www.w3.org/2000/svg"
   xmlns:svg="http://www.w3.org/2000/svg">
  <defs
     id="defs828" />
  <g
     id="g830">
    <path
       style="fill:#000000;stroke-width:1"
       d="m 778.10838,1086.9796 c -20.05607,-19.3462 -20.20646,-19.8549 -9.39933,-31.7968 10.80597,-11.9404 10.74921,-12.136 -3.52183,-12.136 -7.97766,0 -33.72147,-13.5388 -57.20848,-30.0862 -47.70045,-33.60685 -52.94104,-48.1887 -18.45891,-51.36156 11.31736,-1.04135 23.22876,-4.5346 26.46988,-7.76286 9.04026,-9.00433 -13.60994,-22.71827 -37.95705,-22.98179 -16.37066,-0.1774 -23.55808,-3.97939 -32.758,-17.32918 -28.71824,-41.67245 -66.41666,-88.45428 -99.82187,-123.87389 -19.86903,-21.06718 -44.92801,-52.22601 -55.68668,-69.24181 -20.04562,-31.70403 -27.9254,-35.67997 -48.68928,-24.56746 -6.54674,3.5037 -13.03321,5.24028 -14.41439,3.85909 -3.72934,-3.72933 26.86065,-118.33011 33.32488,-124.84674 3.0543,-3.07906 5.55331,-11.64376 5.55331,-19.03271 0,-19.65795 -17.94441,-61.24889 -25.72559,-59.62598 -3.677,0.7669 -13.315,-2.91251 -21.41777,-8.17654 -8.10277,-5.26402 -28.35749,-11.35724 -45.01047,-13.54053 -31.55946,-4.13745 -44.2718,-13.73986 -72.30965,-54.61998 -7.22908,-10.54019 -18.67696,-22.12531 -25.43984,-25.74469 -10.33827,-5.53287 -13.97549,-4.35811 -22.84368,7.37816 -8.24602,10.91286 -12.10557,12.40596 -17.68754,6.84241 -8.78882,-8.7599 2.56555,-25.22113 17.53775,-25.42573 5.2751,-0.0719 16.22062,-5.31671 24.32337,-11.65476 20.3562,-15.92293 25.15229,-14.81652 37.83119,8.72676 10.62075,19.72153 58.28463,61.98827 69.9037,61.98827 3.0916,0 14.68185,7.95543 25.75612,17.67875 23.61069,20.73046 37.40364,22.69558 37.40364,5.3289 0,-18.97909 -16.68055,-42.68018 -36.92927,-52.47224 -18.9627,-9.17016 -23.03318,-14.79696 -31.62364,-43.71541 -7.04127,-23.70319 -17.54074,-25.24124 -21.94604,-3.21477 -7.15067,35.75318 -38.86523,8.23513 -39.0584,-33.89016 -0.10125,-22.08432 14.80324,-32.94402 41.3872,-30.15555 9.43935,0.99013 17.22832,-0.1531 17.30881,-2.54114 0.0802,-2.38775 0.14617,-6.77343 0.14617,-9.74601 0,-2.97251 -13.74116,-8.35151 -30.53593,-11.95337 -16.79475,-3.60181 -33.99773,-9.42183 -38.22891,-12.93342 -4.23118,-3.51154 -12.06965,-4.70515 -17.41888,-2.65247 -7.99605,3.06838 -9.13597,9.44683 -6.40943,35.86443 3.12709,30.29851 2.30679,32.98178 -14.37306,47.01694 -9.72915,8.18657 -22.12662,14.96897 -27.54987,15.07204 -5.42325,0.10309 -15.00797,4.08085 -21.29936,8.83938 -17.38165,13.1468 -27.62696,10.79133 -68.67515,-15.78891 -20.7594,-13.44251 -43.9006,-26.10285 -51.42491,-28.13408 l -13.680535,-3.69316 11.491369,-14.6089 c 17.630086,-22.413 37.467716,-59.75873 33.729066,-63.49739 -1.83883,-1.83881 -13.89798,6.96296 -26.79811,19.55955 -29.295845,28.6066 -40.080948,22.90903 -27.231733,-14.38603 7.868168,-22.83755 7.641351,-27.06305 -2.70862,-50.46089 -7.681245,-17.36462 -20.09126,-31.362 -38.781716,-43.74203 C 22.133688,143.72989 7.5678638,135.53726 4.8824015,135.53726 c -5.58831433,0 -6.7658965,-78.653263 -1.260024,-84.159135 3.3170655,-3.317066 48.5234765,31.885231 113.4235525,88.323135 14.13829,12.29475 29.47709,23.74663 34.0863,25.44857 11.73362,4.3326 -24.74732,41.10246 -40.77953,41.10246 -11.551071,0 -11.60835,0.43256 -1.53175,11.56723 9.56185,10.5657 11.90034,10.82659 27.01013,3.01299 9.09808,-4.7048 33.70462,-25.88655 54.68118,-47.07059 l 38.1392,-38.5163 28.23333,15.0118 c 48.11697,25.58399 50.24061,15.86575 26.71749,-122.265935 L 278.83551,1.1785839e-4 h 110.27801 110.2781 L 503.01912,22.685442 c 1.99518,12.4769 9.58017,30.252892 16.85564,39.502124 7.27545,9.249231 13.28252,19.592425 13.34893,22.984802 0.0666,3.392376 3.95009,18.572892 8.63024,33.734432 l 8.50943,27.56637 44.50911,2.04555 c 24.48001,1.12501 47.46857,-0.0413 51.08578,-2.58788 3.61719,-2.54833 28.43156,-7.37375 55.14312,-10.72305 40.73234,-5.10745 53.24141,-4.53696 77.5485,3.53658 30.44538,10.11231 54.74282,6.48527 75.44065,-11.26155 5.07208,-4.34897 23.80698,-10.92712 41.63307,-14.61809 17.82605,-3.69097 44.34421,-9.78166 58.92918,-13.534919 14.58497,-3.7532 36.46243,-9.177338 48.61653,-12.053554 l 22.0985,-5.229554 V 41.023442 1.1785839e-4 h 53.7054 53.7054 L 1128.5814,27.991485 c -2.3084,15.395252 -6.694,32.657086 -9.7457,38.359663 -4.4243,8.267766 -2.5157,11.521365 9.421,16.059679 18.1471,6.899488 18.5689,13.998102 2.7747,46.688303 -10.1504,21.00897 -11.5272,31.47314 -8.2129,62.4211 4.3726,40.83151 -3.9098,84.0681 -33.5641,175.21306 -9.2088,28.3041 -16.7432,60.55251 -16.7432,71.6632 0,11.11074 -4.9867,36.22342 -11.0815,55.80607 -6.0948,19.58263 -9.6468,37.0394 -7.8933,38.79286 1.7534,1.75348 -0.7898,7.84505 -5.6516,13.53684 -10.5967,12.40567 -33.5624,69.61071 -35.7151,88.96252 -1.2686,11.40374 2.9396,15.48506 24.3042,23.57168 14.2111,5.379 29.6534,15.55218 34.3162,22.60712 7.6207,11.5302 7.2426,14.06239 -3.7399,25.04491 -6.7198,6.71975 -12.2178,13.41959 -12.2178,14.88853 0,1.46885 12.0227,7.98891 26.7171,14.48897 44.1164,19.51476 55.1622,67.51004 26.5657,115.43098 -11.5617,19.37481 -21.5451,126.69776 -11.7856,126.69776 2.956,0 9.5859,6.42747 14.7332,14.28327 8.4942,12.9638 8.5106,15.9234 0.178,32.0374 -12.4573,24.0898 -16.157,25.5409 -47.3145,18.5584 -23.1741,-5.1934 -30.3752,-4.3514 -50.4732,5.9018 -12.8934,6.5778 -23.44256,14.354 -23.44256,17.2806 0,2.9265 6.86525,13.4799 15.25616,23.4518 l 15.2559,18.131 -111.01612,-0.6143 -111.01606,-0.6142 z m 92.86511,-68.683 c 9.77069,-9.7707 8.95847,-34.17895 -1.13739,-34.17895 -9.0104,0 -15.3628,12.38273 -15.3628,29.94655 0,12.9136 6.22281,14.5098 16.50019,4.2324 z M 754.29368,954.65306 c 0,-3.24112 -5.14711,-5.89292 -11.43804,-5.89292 -6.29091,0 -13.07698,2.6518 -15.0801,5.89292 -2.06559,3.34222 2.88529,5.89292 11.43806,5.89292 8.29403,0 15.08008,-2.6518 15.08008,-5.89292 z M 921.38706,745.50269 c 10.45096,-5.62823 24.82615,-18.5488 31.94493,-28.71238 7.11875,-10.16357 17.12745,-24.21429 22.24153,-31.22381 20.88236,-28.62197 37.34998,-129.48233 27.09228,-165.93329 -3.49098,-12.405 -5.97154,-10.34385 -26.68939,22.17659 -15.88213,24.92988 -27.54676,36.87466 -38.28766,39.20706 -8.49575,1.8449 -29.1139,8.6438 -45.81796,15.10857 -25.68578,9.94089 -37.95873,11.12169 -79.55443,7.65408 -31.42281,-2.61959 -56.85077,-8.31987 -70.41636,-15.78549 -11.67819,-6.42693 -26.26316,-10.6745 -32.41107,-9.43904 -9.61559,1.93235 -11.09807,7.3741 -10.60624,38.93322 1.00685,64.60738 43.52479,110.52895 126.12602,136.22249 35.91593,11.17186 64.98984,8.69582 96.37835,-8.208 z M 800.49752,681.55002 c -30.54819,-13.57535 -59.82103,-50.18476 -53.7436,-67.21306 3.89687,-10.91863 14.13487,-9.03425 37.61982,6.92418 23.60313,16.03878 70.50253,26.49764 100.37953,22.38539 10.8954,-1.4997 28.42824,-9.17428 38.96184,-17.05464 22.22891,-16.62989 25.09152,-8.80975 7.39798,20.21 -17.74004,29.09604 -44.37852,42.70663 -82.5327,42.16914 -17.82609,-0.25104 -39.46334,-3.59055 -48.08287,-7.42101 z m 41.51887,-184.21725 c 13.01363,-4.09955 -9.00267,-24.63201 -46.99386,-43.82665 -27.77085,-14.03093 -34.46722,-20.6571 -42.72366,-42.27633 -5.38506,-14.10059 -9.79102,-28.47448 -9.79102,-31.94192 0,-3.59228 19.27059,-7.93336 44.79495,-10.09098 39.95713,-3.3776 46.7235,-2.41333 62.65152,8.92841 11.70357,8.33371 20.35014,10.86336 25.09348,7.34152 3.98029,-2.95535 14.5205,-10.50389 23.4227,-16.77449 l 16.18574,-11.40109 11.02794,14.34754 c 17.08238,22.22444 14.06115,47.35863 -9.97655,82.99719 l -21.26654,31.53 21.11817,1.82007 c 11.615,1.0011 30.46879,-2.61703 41.89735,-8.04022 18.89082,-8.96426 22.05054,-9.02731 34.76929,-0.69366 13.2496,8.68149 14.0035,8.48326 14.2445,-3.7456 0.1402,-7.10173 7.1009,-29.43341 15.4689,-49.62593 18.0441,-43.5416 20.1108,-81.10508 4.9019,-89.09245 -5.6719,-2.97875 -22.2458,-7.31346 -36.83075,-9.6328 -55.55132,-8.83367 -94.14252,-35.18968 -122.70295,-83.80027 -12.60035,-21.44614 -20.05974,-28.26343 -30.9255,-28.26343 -11.73033,0 -15.92192,4.79524 -23.17987,26.51812 -18.40307,55.07977 -53.13821,93.6847 -103.03298,114.51157 -36.47245,15.22418 -78.73848,44.30085 -82.74484,56.92383 -3.8073,11.99564 12.32987,42.75231 35.61109,67.87319 10.18484,10.98963 19.38517,14.17799 41.8442,14.50116 15.83388,0.22805 34.09248,2.60716 40.5747,5.28755 11.10386,4.59135 78.78309,2.22634 96.56209,-3.37433 z M 532.82723,308.74789 c 10.19821,-3.91342 12.6766,-23.11839 3.69945,-28.66663 -8.56754,-5.29495 -35.62853,3.11961 -35.62853,11.07863 0,7.71454 11.67759,21.16494 18.37536,21.16494 2.32782,0 8.42699,-1.60958 13.55372,-3.57694 z M 1511.2541,1103.359 c -6.4335,-4.5123 -32.1313,-63.4102 -32.1313,-73.6428 0,-5.7815 21.0838,-31.34145 64.7475,-78.49358 15.0195,-16.21932 23.6278,-32.05662 26.4256,-48.6166 2.2822,-13.50851 6.5669,-24.56091 9.5214,-24.56091 2.9546,0 18.4783,7.29248 34.4973,16.20552 34.6097,19.2569 41.4505,15.60664 45.9748,-24.53247 1.6756,-14.86682 5.3631,-27.03057 8.1945,-27.03057 2.8314,0 15.0433,5.30361 27.1377,11.78585 12.0944,6.4822 26.5418,11.78583 32.1053,11.78583 9.1245,0 9.3318,1.87601 2.1159,19.15199 -9.7728,23.39737 -74.0402,98.6922 -84.245,98.70045 -9.0852,0.006 -9.5075,7.29336 -0.9206,15.88016 10.2522,10.25223 4.5615,22.84513 -30.0173,66.42463 l -32.411,40.8474 -32.4111,0.2122 c -17.8261,0.1166 -35.1888,-1.736 -38.5837,-4.1172 z m 103.4058,-1.383 c 0,-3.2411 2.1413,-5.8929 4.7585,-5.8929 10.3553,0 44.3444,-56.7076 45.0152,-75.1032 0.5151,-14.1189 7.7077,-26.45087 27.4976,-47.1434 35.1216,-36.72342 62.3788,-72.66369 69.6874,-91.88686 5.0036,-13.16024 8.4427,-14.95859 23.0284,-12.04146 25.1284,5.02564 40.7742,-6.16196 48.5047,-34.6829 15.1812,-56.01057 16.3606,-57.55486 42.7031,-55.91192 21.5884,1.34648 24.6346,-0.18451 30.0094,-15.08422 8.9642,-24.84932 -9.4453,-87.20631 -39.2526,-132.95615 -30.4103,-46.67571 -49.9782,-93.61164 -57.0387,-136.81404 -11.6387,-71.2164 -29.8145,-112.11721 -54.9426,-123.6371 -7.3,-3.34658 -20.6344,-18.54048 -29.6322,-33.76413 -8.9977,-15.22365 -23.0687,-36.91089 -31.2688,-48.19393 -9.9893,-13.74483 -13.6249,-24.44038 -11.0174,-32.41107 2.1406,-6.54304 5.2503,-20.67666 6.9106,-31.40802 2.2442,-14.50471 8.7288,-23.11604 25.2705,-33.55841 27.204,-17.1732 47.0898,-43.98398 47.0898,-63.48825 0,-22.30476 27.7861,-25.56897 60.1494,-7.06614 44.1157,25.22193 63.602,17.51045 63.602,-25.169839 0,-31.907919 -10.5452,-52.811283 -38.8298,-76.971545 L 1824.9061,1.1785839e-4 h 77.5057 77.5058 L 1979.9588,553.93453 1980,1107.869 h -49.5994 -49.5991 l -12.0763,-19.5397 c -6.6418,-10.7469 -17.2426,-24.2153 -23.5573,-29.9299 -10.5066,-9.5084 -10.7772,-12.0744 -3.1893,-30.2349 9.9432,-23.7971 0.2062,-34.96645 -14.6558,-16.8118 -14.5937,17.8281 -37.2177,31.6941 -51.7115,31.6941 -13.5889,0 -28.6126,19.5223 -22.5601,29.3154 6.2033,10.037 -3.7586,36.4332 -12.4206,32.9118 -4.4618,-1.8139 -12.525,-5.0745 -17.9184,-7.2459 -6.6332,-2.6705 -8.4275,-1.7171 -5.5452,2.9465 2.9745,4.8128 -2.6642,6.8944 -18.6763,6.8944 -12.6156,0 -24.782,-1.8446 -27.0365,-4.0992 -6.3691,-6.3691 -21.4368,-7.2635 -21.4368,-1.2724 0,2.9544 -7.9554,5.3716 -17.6788,5.3716 -9.7232,0 -17.6787,-2.6519 -17.6787,-5.893 z m 238.9055,-135.92915 c 6.3424,-10.26216 -0.881,-12.43548 -8.9634,-2.69685 -4.648,5.60059 -5.0951,8.98182 -1.1876,8.98182 3.4467,0 8.0147,-2.82825 10.151,-6.28497 z m -397.3539,-2.94704 c -4.1801,-11.5598 -19.2978,-34.18873 -33.5949,-50.28655 -14.2971,-16.09773 -25.9947,-31.58526 -25.9947,-34.41676 0,-2.83142 17.0261,-25.18255 37.8358,-49.66911 20.8096,-24.48656 39.5511,-49.92546 41.6475,-56.53086 5.5236,-17.40325 12.7281,-14.89316 29.3513,10.22628 16.2624,24.57407 26.7025,69.61061 26.7025,115.18874 0,27.9744 -1.7514,31.43176 -29.445,58.12487 -16.1948,15.6097 -31.573,28.38123 -34.1737,28.38123 -2.6008,0 -8.1487,-9.45802 -12.3288,-21.01784 z M 57.680661,942.80946 c 1.839769,-12.53512 6.65069,-18.75231 16.405239,-21.20055 23.3504,-5.86062 26.44324,-0.18798 10.787285,19.78508 -19.212921,24.51077 -30.669759,25.10713 -27.192524,1.41547 z M 102.49578,891.30417 C 100.40503,882.39112 91.472605,861.83958 82.645836,845.63404 65.841353,814.78168 43.223385,738.57073 49.121077,732.67297 c 1.884438,-1.88444 14.197163,0.88346 27.361651,6.15086 13.164427,5.26738 30.594502,9.57706 38.733392,9.57706 16.02014,0 16.30394,0.52033 24.11925,44.1969 6.84362,38.24656 4.21544,49.57516 -13.02159,56.12867 -15.02158,5.71119 -14.25444,23.42572 1.01447,23.42572 10.63731,0 10.37419,6.07208 -0.96467,22.26046 -12.21037,17.43278 -19.26501,16.514 -23.8678,-3.10847 z M 1333.7013,828.41341 c -19.6977,-14.333 -50.7241,-34.4747 -68.9474,-44.75931 -18.2234,-10.28462 -34.4898,-20.89399 -36.1476,-23.57639 -1.6578,-2.68246 -10.9392,-6.61776 -20.6254,-8.74523 -14.1604,-3.11015 -17.627,-6.95169 -17.6916,-19.60538 -0.047,-8.65546 -1.6709,-21.67069 -3.6146,-28.92269 -3.2912,-12.27936 -2.3745,-12.78103 13.3396,-7.30103 9.2805,3.23639 22.0885,13.64653 28.4625,23.13366 6.3739,9.48707 18.241,20.28019 26.3714,23.98459 12.7284,5.79947 16.2358,4.94058 25.2418,-6.18137 12.1018,-14.94509 13.1865,-33.55221 3.7852,-64.93101 -6.4695,-21.59331 -6.0178,-22.85246 14.7323,-41.07135 13.662,-11.99539 21.4065,-24.01258 21.4065,-33.21679 v -14.42176 l 20.6251,15.73161 c 11.3439,8.65242 20.6253,18.11809 20.6253,21.03491 0,2.91682 -11.9315,20.50183 -26.5145,39.07776 -42.8966,54.64246 -30.9732,63.35756 18.7093,13.67501 l 23.7503,-23.7503 6.3887,14.02167 c 7.8045,17.12913 43.2311,66.4145 60.2735,83.85223 11.5946,11.86369 11.8536,13.9628 3.6347,29.46461 -12.4065,23.40013 -62.1109,78.56659 -70.7876,78.56659 -3.9619,0 -23.3197,-11.72704 -43.0175,-26.06003 z M 273.30146,791.12455 c -1.81277,-5.67195 -6.14326,-16.25657 -9.62332,-23.52136 -4.7415,-9.89809 -4.28573,-17.28305 1.8185,-29.46459 4.48027,-8.94075 9.11493,-18.24473 10.29929,-20.67555 4.423,-9.07781 -11.0419,-3.99233 -22.4004,7.36615 -6.4822,6.4822 -14.45155,11.78583 -17.70964,11.78583 -3.25807,0 -17.18009,-14.92375 -30.93783,-33.1638 -13.75771,-18.24012 -36.52471,-46.44346 -50.59329,-62.67404 -25.76338,-29.72258 -26.38455,-32.44222 -15.45961,-67.69067 5.17452,-16.69523 -6.19735,-17.8163 -14.94385,-1.47323 -3.46917,6.48222 -9.69592,11.78586 -13.83717,11.78586 -16.745494,0 -62.770784,-66.74306 -62.770784,-91.02641 0,-4.94728 9.944301,-13.16913 22.098447,-18.27076 C 93.311786,463.99874 187.30579,450.52299 193.124,456.3412 c 6.20865,6.20867 -58.83368,67.4454 -73.612,69.30497 -12.79506,1.61006 -13.31122,2.79762 -5.70452,13.12507 7.64942,10.38544 10.06599,10.65397 28.30563,3.14557 10.9682,-4.51509 35.27131,-23.5468 54.00695,-42.29266 18.73566,-18.7459 36.17315,-34.08341 38.75002,-34.08341 13.64282,0 44.98331,47.06552 56.23429,84.44967 6.68364,22.20794 6.88053,29.22794 0.98513,35.12332 -14.94609,14.94609 -22.13468,35.41186 -18.61674,53.00147 3.83895,19.19471 -8.70937,39.57065 -24.3691,39.57065 -4.82742,0 -7.47562,4.35634 -6.26895,10.31261 2.10366,10.38386 16.93407,12.54662 34.46022,5.0254 6.57001,-2.81945 11.57846,1.54591 17.67875,15.40888 6.69541,15.21547 13.54145,20.51744 32.08333,24.84733 12.96444,3.02736 24.66035,6.32587 25.99092,7.33001 6.59788,4.97893 -58.82637,60.82707 -71.25695,60.82707 -2.85653,0 -6.6768,-4.64068 -8.48952,-10.3126 z M 0,725.52474 c 0,-3.24109 2.6518136,-7.5318 5.8929194,-9.53491 3.2411057,-2.00313 5.8929196,-0.9902 5.8929196,2.25092 0,3.2411 -2.6518139,7.5318 -5.8929196,9.53492 C 2.6518136,729.77877 0,728.76585 0,725.52474 Z m 1149.1193,-75.64293 c 0,-3.62425 -1.6096,-10.78415 -3.577,-15.91089 -1.9707,-5.13572 -0.5645,-9.32134 3.1315,-9.32134 9.9019,0 14.8376,17.42965 7.1209,25.14637 -4.8695,4.8695 -6.6754,4.89278 -6.6754,0.0862 z M 6.9732683,446.58517 c -8.2547426,-8.25474 -9.1045606,-16.40193 -1.7108324,-16.40193 5.4006251,0 14.2889141,17.77044 10.6889311,21.37043 -1.102624,1.10263 -5.14281,-1.13315 -8.9780987,-4.9685 z M 263.65906,441.23428 c -5.64495,-3.15907 -10.26353,-8.26381 -10.26353,-11.34387 0,-9.47359 16.19134,-6.19026 20.13346,4.08275 4.8494,12.63736 2.64057,14.26233 -9.86993,7.26112 z M 1405.4613,36.969524 c -17.1806,-4.198469 -26.5182,-13.320119 -26.5182,-25.905096 0,-10.07818901 5.1959,-11.06431014161 58.2988,-11.06431014161 48.6419,0 58.9142,1.60387594161 62.0143,9.68283264161 4.7137,12.2835555 6.2317,11.4143495 -31.9193,18.2755335 -17.8261,3.205867 -36.3888,7.192897 -41.2504,8.860006 -4.8617,1.667165 -14.143,1.735109 -20.6252,0.150854 z M 1550.865,21.718766 C 1533.9246,3.6864335 1534.683,1.1785839e-4 1555.3336,1.1785839e-4 c 17.4823,0 29.1549,16.30576714161 21.055,29.41185514161 -5.5838,9.03473 -11.4774,7.25831 -25.5236,-7.693207 z M 165.00174,5.5452372 c 0,-3.43239 2.65181,-4.6017808 5.89293,-2.5986598 3.2411,2.0031214 5.89291,4.8114509 5.89291,6.2407196 0,1.429269 -2.65181,2.59866 -5.89291,2.59866 -3.24112,0 -5.89293,-2.80833 -5.89293,-6.2407198 z M 1281.71,5.8929194 C 1279.7068,2.6518136 1280.7198,0 1283.9609,0 c 3.2411,0 7.5318,2.6518136 9.5349,5.8929194 2.0031,3.2411057 0.9902,5.8929196 -2.2509,5.8929196 -3.2411,0 -7.5318,-2.6518139 -9.5349,-5.8929196 z"
       id="path1418" />
  </g>
</svg>
